Coordinates
version=1
nRows=10
nColumns=34
inDegrees=yes

Units are S.I. units (second, meters, Newtons, ...)
If the header above contains a line with 'inDegrees', this indicates whether rotational values are in degrees (yes) or radians (no).

endheader
time	pelvis_tilt	pelvis_list	pelvis_rotation	pelvis_tx	pelvis_ty	pelvis_tz	hip_flexion_r	hip_adduction_r	hip_rotation_r	knee_angle_r	ankle_angle_r	subtalar_angle_r	mtp_angle_r	hip_flexion_l	hip_adduction_l	hip_rotation_l	knee_angle_l	ankle_angle_l	subtalar_angle_l	mtp_angle_l	lumbar_extension	lumbar_bending	lumbar_rotation	arm_flex_r	arm_add_r	arm_rot_r	elbow_flex_r	pro_sup_r	arm_flex_l	arm_add_l	arm_rot_l	elbow_flex_l	pro_sup_l
      0.00000000	    -14.59918364	      2.00593133	     -6.81559521	     -0.00057868	      1.19744419	     -0.09829163	     27.15342123	      2.53497308	      8.65276695	     41.39932577	     21.53889663	    -19.10951906	      0.00000000	     27.29934518	      1.62190870	      5.28520352	     42.07047384	     23.30325993	    -15.06439142	      0.00000000	    -19.55761270	     -1.03957402	     -0.40247691	     10.41067654	    -12.09438171	     22.24552777	     22.77359356	     67.67462871	     15.18120455	    -10.04889615	     33.75725584	     19.54123245	     60.94674536
      0.01666670	    -16.44252620	      2.23567021	     -5.81913806	     -0.00170269	      1.18585202	     -0.10410672	     30.03752431	      2.99963100	      9.69437729	     43.20504049	     28.36685131	    -14.19981545	      0.00000000	     30.57986596	      3.69427643	      7.43339180	     44.55628104	     26.02616824	    -13.92744394	      0.00000000	    -20.04449609	     -1.14902986	     -1.09357389	     13.53821446	    -11.84293118	     23.78565978	     20.57233294	     67.94126857	     18.36176320	    -10.54318538	     34.51302534	     19.42140659	     61.15070194
      0.03333330	    -17.77745807	      2.53371679	     -6.29387199	      0.00514250	      1.17194735	     -0.10600323	     31.90847045	      3.09923622	      9.96348177	     44.84028379	     30.98579711	    -13.51641989	      0.00000000	     32.19344434	      4.46751537	      7.87135080	     45.64553205	     27.87064116	    -14.56126390	      0.00000000	    -19.31572187	     -1.31185831	     -1.41144575	     17.95433687	    -12.88076426	     35.00860100	     18.23186257	     69.38065568	     22.50819666	    -12.13746459	     42.08135441	     19.52421585	     62.89393136
      0.05000000	    -18.19086993	      2.51484014	     -6.14239075	      0.01158268	      1.16320169	     -0.10845629	     33.15344951	      2.96231945	      9.44303458	     47.63667264	     33.16449709	    -12.30868249	      0.00000000	     33.40092287	      5.28018563	      8.87873483	     48.11265370	     29.31476329	    -15.73757174	      0.00000000	    -19.63418137	     -1.25186984	     -1.21251606	     22.28112250	    -14.30490438	     42.98527269	     18.20464513	     67.74726032	     27.33073875	    -12.31150230	     48.14476116	     19.60045095	     62.90420291
      0.06666670	    -19.51212610	      2.63257655	     -6.19922648	      0.01652173	      1.15262753	     -0.10766475	     35.50554089	      3.05444306	      9.45168251	     50.23644131	     35.04401532	    -10.95423583	      0.00000000	     35.37575951	      5.39918933	      8.60119968	     50.25724130	     31.42859260	    -15.74031742	      0.00000000	    -18.36917786	     -1.13754286	     -1.00066489	     25.74055352	    -14.71190844	     43.61474236	     18.75756440	     67.21836447	     31.05670376	    -12.69618202	     48.92850238	     20.70202427	     62.75418057
      0.08333330	    -20.31444141	      2.83659336	     -6.10830443	      0.02969387	      1.14829977	     -0.10422401	     36.16324408	      2.88148339	      9.45932957	     51.79471087	     36.25524953	     -9.85194713	      0.00000000	     36.41708164	      5.69372343	      8.85227424	     51.70189657	     32.97330367	    -15.01101002	      0.00000000	    -16.78403980	     -1.32246977	     -1.02957195	     28.67510101	    -14.87307271	     43.79836197	     20.03365962	     66.97347132	     34.10914441	    -13.74497103	     49.32091179	     21.68918930	     62.61468604
      0.10000000	    -20.85614233	      2.85672494	     -5.99194843	      0.04530425	      1.14396406	     -0.10375786	     35.81701951	      2.87863104	      9.35166924	     52.12512153	     36.73871460	     -9.76980673	      0.00000000	     36.21498666	      5.62615699	      8.91551627	     52.16159400	     33.42966236	    -15.26333606	      0.00000000	    -14.84184314	     -1.37217143	     -0.79112307	     31.08746262	    -15.13609030	     43.51501145	     20.71542972	     66.92025684	     36.99331117	    -14.50196160	     48.90965331	     22.13295667	     62.50976828
      0.11666670	    -21.42530633	      3.04448018	     -5.74850925	      0.06184745	      1.14180044	     -0.09941843	     35.01393059	      2.67232685	      8.92034808	     51.98482155	     37.72864304	     -7.74495518	      0.00000000	     35.32495202	      5.87959286	      9.62388466	     51.44506143	     33.97224000	    -14.40092078	      0.00000000	    -12.18818832	     -1.82476170	     -0.70951354	     30.70497361	    -15.99705500	     37.68880926	     26.60249303	     66.63886307	     38.25810579	    -16.17567802	     44.09177527	     25.45236866	     60.49717910
      0.13333330	    -21.34065397	      2.80529588	     -5.65408926	      0.08342666	      1.14981607	     -0.09747182	     32.62308684	      2.81547668	      8.72978388	     49.98337527	     37.29695925	     -6.89377910	      0.00000000	     32.78410394	      5.18920203	      9.87165725	     49.02199511	     32.96571120	    -16.06440155	      0.00000000	     -9.73711319	     -1.70459346	     -0.55320772	     29.09464742	    -16.12707759	     29.85035692	     31.30139982	     68.50003450	     38.13421609	    -17.04066255	     38.33118366	     27.72173648	     59.60891399
      0.15000000	    -21.13783949	      2.45058371	     -5.25703130	      0.10760723	      1.15324223	     -0.09452498	     29.73473920	      2.86747866	      8.35966291	     47.41015366	     35.66307491	     -6.93208942	      0.00000000	     29.38988457	      4.69346711	     10.09493827	     46.30034839	     32.52251173	    -14.85786594	      0.00000000	     -6.72020136	     -1.49585131	     -0.41333036	     25.40182857	    -16.56318423	     21.13654381	     38.11068707	     71.79399737	     36.58738688	    -17.69208498	     31.92968091	     30.44453859	     59.92954870
